<svg width="92" height="36" viewBox="0 0 92 36" fill="none" xmlns="http://www.w3.org/2000/svg">
<path d="M17.3068 10.1077C17.8439 9.95295 18.7548 9.99237 19.3483 9.9703C19.761 10.7316 19.2814 13.018 20.1065 13.2033C20.4392 13.2523 21.0797 13.0522 21.1529 12.6235C21.1103 11.9574 20.9635 10.9425 20.9319 10.3057C20.8305 8.32421 20.4939 6.57142 20.484 4.38843C20.4897 3.53033 20.59 2.97779 19.8169 2.96692C18.835 2.93409 18.5186 4.33671 18.0417 5.25791C17.0894 7.08638 16.151 8.91631 15.2719 10.851C15.0859 11.2819 14.7782 11.7986 14.7907 12.0815C14.8054 12.4772 15.5654 12.8808 16.0467 12.4528C16.4534 11.9324 17.0738 10.7166 17.3068 10.1077ZM19.0993 6.31223C19.2621 6.63903 19.329 8.01154 19.2565 8.56701C19.0579 8.71507 18.3054 8.77674 17.9954 8.64562C18.1491 7.98608 18.6905 6.71973 18.974 6.29906C19.0158 6.30345 19.0575 6.30784 19.0993 6.31223ZM24.4668 3.2304C23.4893 3.42328 23.4243 4.97901 23.2054 6.1244C22.8905 7.78057 22.5932 9.00218 22.2183 10.6943C22.0784 11.3553 21.4566 13.1199 21.9022 13.4342C22.2796 13.7273 22.9207 13.3864 23.1346 12.9584C23.2768 12.6778 23.5316 11.5925 23.6158 11.1931C24.0119 9.16537 24.4235 7.39268 24.8005 5.27851C24.9565 4.46435 25.4722 3.04045 24.4668 3.2304ZM27.363 3.5348C26.3854 3.72768 26.3205 5.28341 26.1015 6.4288C25.7867 8.08496 25.4894 9.30658 25.1145 10.9987C24.9746 11.6597 24.3527 13.4243 24.7983 13.7386C25.1758 14.0317 25.8169 13.6908 26.0308 13.2628C26.1729 12.9822 26.4278 11.8969 26.512 11.4975C26.9081 9.46977 27.3196 7.69707 27.6967 5.58291C27.8527 4.76875 28.3683 3.34485 27.363 3.5348ZM33.9467 7.64752C33.836 7.49512 33.622 7.38816 33.4117 7.38013C32.6569 7.32896 32.6321 7.83312 32.3985 8.85028C32.1547 9.96489 31.9153 11.8402 31.6979 12.9716C31.6254 13.2596 31.536 13.574 31.5741 13.7469C31.6262 13.9213 31.901 14.1191 32.1084 14.155C32.6346 14.2385 32.902 14.2384 33.091 13.7797C33.3196 13.2125 33.471 11.6377 33.5816 10.9877C33.6064 10.751 34.6205 10.21 35.209 10.1029C35.4544 10.0443 36.0692 9.95402 36.3689 9.91514C36.6547 9.87479 37.2035 9.6087 37.1785 9.04298C37.1507 8.77259 36.8355 8.55646 36.5461 8.49788C36.0521 8.37559 35.4579 8.53836 35.0673 8.63808C34.7046 8.74073 34.1844 9.13652 33.848 8.98855C33.9241 8.53201 34.0501 8.13701 33.9467 7.64752ZM38.9309 12.8309C39.2768 12.7546 39.8652 12.6476 40.31 12.5676C40.9695 12.4539 41.3102 12.2927 41.9602 12.1357C42.3493 12.0499 42.6636 11.6044 42.6752 11.2255C42.7016 10.9749 42.5652 10.3975 42.4853 10.2201C42.0344 8.75096 40.9351 8.22718 39.5209 8.55716C38.9464 8.66571 38.2628 9.14286 37.8627 9.73429C37.3528 10.3001 37.1075 11.1612 37.2462 12.3864C37.5021 13.5676 37.8217 14.0094 38.9011 14.5874C39.5717 15.038 40.9552 15.0004 41.7195 14.5599C41.9767 14.3898 42.0916 13.9655 41.819 13.6131C41.3236 13.2372 40.8547 13.9481 39.9423 13.6551C39.3428 13.4654 38.994 13.3021 38.9309 12.8309ZM39.2075 10.1994C40.1593 9.58151 40.9888 9.725 41.2396 10.8212C41.1451 11.0506 40.7165 11.2449 40.3889 11.2808C39.8914 11.3271 39.0128 11.5163 38.7666 11.4482C38.6815 11.1858 38.8148 10.4537 39.2075 10.1994ZM46.2008 8.9214C45.4401 8.92592 44.7191 9.08944 44.1535 9.64938C43.9322 9.87952 43.7982 10.4848 43.788 10.8498C43.7683 11.4389 44.3048 11.9599 44.7416 12.3577C45.1022 12.6771 45.9978 13.264 45.8513 13.8539C44.8959 14.9078 44.467 13.7647 43.6815 14.0059C43.5364 14.047 43.3532 14.1826 43.3122 14.305C43.1123 15.0019 43.2882 15.2034 44.4439 15.5923C44.9334 15.7564 45.7109 15.7255 46.1285 15.5019C46.7096 15.197 47.2166 14.659 47.3249 13.8962C47.4611 12.8688 46.6454 12.1918 46.1213 11.6862C46.0063 11.5756 45.3203 11.1375 45.3891 10.7506C45.4638 10.308 45.9225 10.2295 46.6664 10.5188C46.9317 10.6734 47.5209 11.228 47.8228 11.0345C47.9708 10.9656 48.3064 10.7193 48.3027 10.3529C48.2982 9.85978 47.7918 9.45462 47.2582 9.17331C46.9915 9.03266 46.2719 8.91479 46.2008 8.9214ZM50.6379 14.0614C50.9838 13.9851 51.5722 13.878 52.017 13.7981C52.6765 13.6844 53.0172 13.5231 53.6672 13.3662C54.0563 13.2804 54.3706 12.8348 54.3822 12.456C54.4086 12.2053 54.2722 11.6279 54.1923 11.4506C53.7414 9.98141 52.6421 9.45764 51.2279 9.78762C50.6534 9.89616 49.9698 10.3733 49.5697 10.9647C49.0598 11.5305 48.8145 12.3916 48.9532 13.6168C49.2091 14.798 49.5287 15.2399 50.6081 15.8179C51.2787 16.2684 52.6622 16.2308 53.4265 15.7903C53.6837 15.6203 53.7986 15.196 53.526 14.8435C53.0306 14.4677 52.5617 15.1786 51.6493 14.8856C51.0498 14.6959 50.701 14.5325 50.6379 14.0614ZM50.9145 11.4299C51.8663 10.812 52.6958 10.9555 52.9466 12.0517C52.8521 12.2811 52.4235 12.4753 52.0959 12.5113C51.5984 12.5575 50.7198 12.7467 50.4736 12.6786C50.3885 12.4163 50.5218 11.6842 50.9145 11.4299ZM56.3735 11.6235C56.8843 11.7195 57.535 11.1544 58.5968 11.097C58.9126 11.1725 59.3099 11.9462 58.9121 12.3831C58.66 12.6381 57.4714 12.4287 56.7672 12.5659C56.3642 12.6502 55.8461 12.8914 55.6307 13.0658C55.2922 13.3399 54.879 13.7892 54.9546 14.5432C54.9627 14.8678 55.2104 15.1895 55.4376 15.4386C55.9815 16.1574 56.5817 16.4739 57.3695 16.8804C57.596 17.0028 58.1566 17.1603 58.3977 17.1434C58.7362 17.1367 59.1509 16.6735 59.2776 16.4053C59.5794 15.6769 59.7991 14.9257 60.0372 14.1343C60.2232 13.4359 60.5374 12.4553 60.4779 11.5482C60.4426 10.8124 60.0395 10.0944 59.5573 9.86068C58.7006 9.57356 57.9876 9.79424 57.0636 10.1476C56.5976 10.2957 56.0407 10.5046 56.0518 11.0689C56.0672 11.3239 56.1192 11.4983 56.3735 11.6235ZM57.6848 13.7462C57.9509 13.7601 58.4873 13.7461 58.6522 13.9183C58.6009 14.4056 58.4567 15.3759 58.0134 15.4419C57.3553 15.2742 56.3557 14.8735 56.4267 14.0645C56.6648 13.808 57.1528 13.7185 57.6848 13.7462ZM63.3162 10.7344C63.2055 10.582 62.9915 10.475 62.7812 10.467C62.0264 10.4158 62.0016 10.92 61.768 11.9371C61.5241 13.0518 61.2848 14.927 61.0673 16.0585C60.9948 16.3465 60.9055 16.6609 60.9436 16.8338C60.9957 17.0082 61.2705 17.206 61.4779 17.2419C62.004 17.3253 62.2715 17.3253 62.4605 16.8665C62.6891 16.2993 62.8405 14.7245 62.951 14.0745C62.9759 13.8378 63.99 13.2968 64.5784 13.1898C64.8239 13.1311 65.4387 13.0409 65.7384 13.002C66.0242 12.9616 66.573 12.6956 66.548 12.1298C66.5201 11.8594 66.205 11.6433 65.9155 11.5847C65.4216 11.4624 64.8273 11.6252 64.4368 11.7249C64.0741 11.8276 63.5538 12.2234 63.2175 12.0754C63.2936 11.6189 63.4196 11.2239 63.3162 10.7344ZM71.367 16.9017C71.1301 16.0744 70.4692 16.4695 69.6639 16.4975C68.5757 16.5379 67.9688 15.8829 67.7987 15.0908C67.641 14.3141 68.6082 13.4162 69.6238 13.3963C70.0042 13.394 70.3654 13.5728 70.8476 13.539C71.2294 13.5228 71.6258 13.0999 71.5575 12.5437C71.4834 12.0433 70.0662 11.8661 69.6148 11.875C68.4042 11.8745 67.3579 12.4543 66.73 13.4722C66.4319 14.0321 66.1865 14.8932 66.3141 15.5542C66.6668 16.8863 67.5793 17.7142 69.0105 17.8928C70.3024 18.0567 71.5737 17.6132 71.367 16.9017ZM74.8127 12.4917C74.672 12.491 74.9738 11.4951 75.1049 10.9176C75.1891 10.5182 75.5195 9.9195 75.3018 9.44615C75.1859 9.20875 74.8232 9.04392 74.4956 9.07988C73.8544 9.15326 73.7352 10.4217 73.5565 11.318C73.3823 12.1724 73.2065 12.7734 73.0022 13.7795C72.6815 15.2239 72.4625 15.8344 72.1564 17.1395C71.9755 17.9229 71.9089 18.6901 72.5128 18.8381C73.3826 18.9999 73.4543 18.3176 73.5986 17.6149C73.8673 16.531 73.9083 15.8737 74.2349 14.9086C74.3968 14.5737 74.6269 14.26 74.9009 14.0635C75.1471 13.8642 75.4768 13.6736 75.9363 13.7219C76.151 13.9556 75.9285 15.537 75.9073 15.8727C75.7368 17.361 75.4673 18.5855 75.5942 18.8522C75.721 19.119 76.3204 19.3087 76.6604 19.0206C77.0451 18.7091 77.1013 17.7719 77.1796 16.8932C77.2674 16.0578 77.4358 14.9916 77.4657 14.305C77.511 13.3384 77.3364 12.3206 76.737 12.1309C75.9331 11.8775 75.5397 12.54 74.8127 12.4917ZM3.93285 18.556C3.17221 18.5605 2.45117 18.724 1.88554 19.284C1.66428 19.5141 1.53027 20.1194 1.52007 20.4843C1.50037 21.0735 2.03686 21.5944 2.47367 21.9923C2.83425 22.3117 3.72982 22.8985 3.58335 23.4885C2.62796 24.5424 2.19909 23.3993 1.41358 23.6405C1.26849 23.6816 1.08531 23.8171 1.04429 23.9395C0.844352 24.6364 1.02025 24.8379 2.17593 25.2269C2.66546 25.3909 3.44295 25.36 3.86061 25.1365C4.44167 24.8315 4.94867 24.2936 5.05701 23.5307C5.19315 22.5033 4.37744 21.8264 3.85341 21.3208C3.73835 21.2102 3.05238 20.7721 3.12121 20.3852C3.19588 19.9425 3.6546 19.8641 4.39843 20.1534C4.66372 20.308 5.25298 20.8626 5.55486 20.6691C5.70287 20.6002 6.03845 20.3539 6.03473 19.9875C6.03026 19.4944 5.52383 19.0892 4.99031 18.8079C4.72355 18.6672 4.00393 18.5494 3.93285 18.556ZM10.4688 19.3978C10.4151 18.4349 10.7052 18.0853 10.8803 17.3576C11.0568 16.8835 11.1784 16.5302 10.4778 16.4988C9.37204 16.4389 9.38684 17.3696 9.17665 18.164C9.0873 18.4783 8.92988 19.3064 8.67562 19.4486C8.43675 19.5784 7.47751 19.4635 7.1778 19.5023C6.88763 19.5845 6.62166 19.8381 6.55209 20.0982C6.45759 20.3276 6.50969 20.7695 6.78598 20.9533C7.16927 21.1907 8.18927 20.8615 8.45753 21.2557C8.31696 22.0574 8.23572 22.6964 8.09657 23.2167C8.05631 23.4659 7.77801 24.5065 7.7099 24.7527C7.65864 24.9726 7.22647 26.1378 7.2866 26.3693C7.36358 26.5745 7.79595 26.7466 8.10665 26.7371C8.81306 26.7128 9.05904 25.1761 9.20626 24.7129C9.2773 24.4389 9.52921 23.3814 9.58633 23.1059C9.66322 22.7761 9.92605 21.213 10.214 21.018C10.488 20.8216 11.6195 21.0391 12.0745 20.8616C12.383 20.7392 12.5925 20.353 12.5485 19.9683C12.4781 19.2993 10.7693 19.7531 10.4688 19.3978ZM14.1192 21.2596C14.63 21.3555 15.2806 20.7904 16.3424 20.7331C16.6583 20.8085 17.0556 21.5823 16.6577 22.0191C16.4057 22.2741 15.2171 22.0647 14.5129 22.2019C14.1098 22.2862 13.5918 22.5274 13.3764 22.7018C13.0379 22.9759 12.6247 23.4252 12.7002 24.1792C12.7084 24.5039 12.9561 24.8255 13.1833 25.0746C13.7271 25.7934 14.3274 26.1099 15.1152 26.5165C15.3416 26.6388 15.9022 26.7963 16.1433 26.7794C16.4819 26.7727 16.8966 26.3095 17.0233 26.0413C17.3251 25.3129 17.5448 24.5617 17.7828 23.7703C17.9689 23.0719 18.2831 22.0914 18.2236 21.1842C18.1883 20.4484 17.7851 19.7304 17.3029 19.4967C16.4462 19.2096 15.7333 19.4302 14.8093 19.7836C14.3432 19.9317 13.7863 20.1406 13.7974 20.7049C13.8129 20.9599 13.8649 21.1343 14.1192 21.2596ZM15.4305 23.3822C15.6965 23.3961 16.2329 23.3821 16.3978 23.5543C16.3466 24.0416 16.2024 25.0119 15.7591 25.0779C15.101 24.9102 14.1014 24.5095 14.1724 23.7005C14.4105 23.444 14.8985 23.3545 15.4305 23.3822ZM21.0618 20.3704C20.9512 20.218 20.7372 20.111 20.5269 20.103C19.7721 20.0518 19.7472 20.556 19.5136 21.5731C19.2698 22.6878 19.0305 24.563 18.813 25.6945C18.7405 25.9825 18.6512 26.2969 18.6893 26.4698C18.7413 26.6442 19.0162 26.842 19.2236 26.8779C19.7497 26.9613 20.0172 26.9613 20.2062 26.5025C20.4347 25.9353 20.5862 24.3605 20.6967 23.7105C20.7216 23.4738 21.7357 22.9329 22.3241 22.8258C22.5696 22.7671 23.1844 22.6769 23.4841 22.638C23.7699 22.5976 24.3187 22.3316 24.2937 21.7658C24.2658 21.4954 23.9507 21.2793 23.6612 21.2207C23.1673 21.0984 22.573 21.2612 22.1824 21.3609C21.8197 21.4636 21.2995 21.8594 20.9631 21.7114C21.0393 21.2549 21.1652 20.8599 21.0618 20.3704ZM28.512 21.2942C28.4583 20.3313 28.7484 19.9817 28.9235 19.254C29.1 18.7799 29.2216 18.4267 28.521 18.3953C27.4152 18.3353 27.43 19.266 27.2198 20.0604C27.1305 20.3748 26.9731 21.2028 26.7188 21.345C26.4799 21.4748 25.5207 21.3599 25.221 21.3988C24.9308 21.4809 24.6649 21.7345 24.5953 21.9946C24.5008 22.224 24.5529 22.6659 24.8292 22.8498C25.2125 23.0871 26.2325 22.7579 26.5007 23.1521C26.3602 23.9538 26.2789 24.5928 26.1398 25.1132C26.0995 25.3623 25.8212 26.4029 25.7531 26.6491C25.7018 26.869 25.2697 28.0342 25.3298 28.2658C25.4068 28.4709 25.8391 28.6431 26.1498 28.6335C26.8563 28.6092 27.1022 27.0725 27.2495 26.6093C27.3205 26.3353 27.5724 25.2778 27.6295 25.0023C27.7064 24.6725 27.9692 23.1094 28.2572 22.9144C28.5312 22.718 29.6627 22.9355 30.1177 22.7581C30.4262 22.6356 30.6357 22.2494 30.5917 21.8647C30.5213 21.1957 28.8125 21.6495 28.512 21.2942ZM37.3132 25.7667C37.7543 25.5878 38.2702 25.7687 38.8096 25.7269C39.321 25.6821 39.5209 24.7177 38.9163 24.443C38.2421 24.161 37.9806 24.3728 37.554 24.145C37.3693 23.7595 37.7149 22.0785 37.8424 21.6695C38.0533 21.0019 38.3982 19.729 39.0526 19.7978C39.4425 19.8388 39.4858 20.3642 39.5819 20.6558C39.6779 20.9475 39.7593 21.3783 40.0224 21.42C40.3324 21.5512 40.8175 21.4895 40.9713 21.0975C41.1105 20.8446 41.1192 20.2262 40.8978 19.6539C40.5994 18.8764 40.027 18.2954 39.0444 18.4033C38.0339 18.5082 37.4426 19.1781 36.921 20.1228C36.4529 20.9604 36.2625 21.7006 36.0384 22.761C35.9659 23.049 35.9865 23.6564 35.8436 23.8103C35.6685 24.0031 35.8305 23.9357 35.4392 23.9086C35.0757 23.8845 34.65 24.0509 34.5591 24.3792C34.5013 24.528 34.4251 24.717 34.5981 24.9464C35.0342 25.4849 35.0217 25.202 35.6863 25.4408C35.7964 26.2689 35.398 27.6488 35.5139 28.4211C35.5909 28.8938 36.6029 29.0424 36.8564 28.5059C37.1523 27.8332 37.0927 26.1236 37.3132 25.7667ZM42.7354 22.6484C42.6248 22.496 42.4108 22.389 42.2004 22.381C41.4457 22.3298 41.4208 22.834 41.1872 23.8511C40.9434 24.9657 40.7041 26.841 40.4866 27.9725C40.4141 28.2605 40.3247 28.5748 40.3629 28.7478C40.4149 28.9222 40.6898 29.12 40.8971 29.1559C41.4233 29.2393 41.6908 29.2393 41.8798 28.7805C42.1083 28.2133 42.2597 26.6385 42.3703 25.9885C42.3952 25.7518 43.4093 25.2108 43.9977 25.1038C44.2432 25.0451 44.858 24.9549 45.1577 24.916C45.4435 24.8756 45.9923 24.6095 45.9673 24.0438C45.9394 23.7734 45.6242 23.5573 45.3348 23.4987C44.8409 23.3764 44.2466 23.5392 43.856 23.6389C43.4933 23.7416 42.9731 24.1374 42.6367 23.9894C42.7129 23.5329 42.8388 23.1379 42.7354 22.6484ZM48.8278 23.2746C48.3749 23.2974 48.1361 23.4272 47.7756 23.6427C47.2026 24.0047 47.1169 24.1506 46.7439 24.6182C46.0362 25.4588 45.7147 27.0439 46.3459 28.1378C46.7057 28.598 47.4665 29.1284 48.1692 29.2726C49.0083 29.4594 49.6737 29.29 50.2393 28.9975C51.2285 28.4258 51.9817 27.421 51.9441 26.305C52.0757 24.5169 50.8847 23.1248 48.8278 23.2746ZM47.5159 26.7827C47.4689 25.8909 48.2733 24.6663 49.0398 24.6061C50.0334 24.5275 50.7591 25.6596 50.3855 26.8028C50.1944 27.4162 49.5401 27.8823 49.0953 27.9623C48.1515 28.1024 47.5556 27.4767 47.5159 26.7827ZM54.4226 26.5373C54.3675 26.1233 55.089 24.2142 54.5635 23.7226C54.4236 23.5812 54.1048 23.5336 53.9428 23.6011C53.298 23.843 53.2512 24.556 53.1268 25.472C53.0565 25.8729 52.9548 26.4393 52.8361 27.0322C52.7021 27.6375 52.6209 28.2765 52.5294 28.7455C52.4137 29.3105 52.2899 29.8184 52.5647 30.0162C52.7077 30.1297 53.1825 30.1656 53.4185 30.0637C53.6837 29.9508 53.9225 29.5536 54.1504 29.127C54.5416 28.3517 54.9731 27.8621 55.4303 27.2626C55.6757 26.9365 55.8925 26.4807 56.3036 26.4535C56.4899 27.0924 56.1236 27.8986 55.9442 28.668C55.8717 28.956 55.7669 29.2829 55.7758 29.4668C55.822 30.2318 56.7028 30.1555 57.163 29.7956C57.7601 29.3375 58.3037 28.4515 58.747 27.8505C58.8986 27.6131 59.092 27.38 59.3712 27.2686C59.4102 27.8358 59.2322 28.3238 59.1113 28.8038C59.0073 29.2575 58.8118 29.9126 58.8566 30.4241C58.9344 31.291 59.9588 31.1875 60.257 30.6276C60.4145 30.3344 60.5184 29.6134 60.6056 29.1861C60.6985 28.7032 60.7791 28.2049 60.8831 27.7513C61.0427 27.036 61.5532 25.2597 60.9669 24.9447C60.2597 24.5747 59.6648 25.4131 59.33 25.7862C59.1226 26.0178 58.8244 26.3102 58.6156 26.5557C58.4068 26.8012 58.1621 26.9867 57.7496 27.2952C57.8761 25.9571 57.8905 24.2131 56.5078 24.6449C55.9692 24.8135 55.449 25.4768 55.0974 25.8762C54.9069 26.0814 54.586 26.4559 54.4226 26.5373ZM68.2913 25.8834C68.1506 25.8827 68.4523 24.8868 68.5834 24.3093C68.6676 23.9099 68.998 23.3112 68.7803 22.8378C68.6645 22.6004 68.3017 22.4356 67.9742 22.4716C67.333 22.5449 67.2137 23.8134 67.0351 24.7097C66.8608 25.5641 66.685 26.165 66.4807 27.1712C66.16 28.6156 65.941 29.226 65.6349 30.5312C65.454 31.3146 65.3874 32.0818 65.9913 32.2298C66.8611 32.3916 66.9328 31.7093 67.0771 31.0066C67.3459 29.9227 67.3868 29.2654 67.7135 28.3002C67.8754 27.9653 68.1054 27.6517 68.3794 27.4552C68.6256 27.2559 68.9554 27.0653 69.4148 27.1136C69.6296 27.3473 69.407 28.9287 69.3859 29.2643C69.2153 30.7527 68.9459 31.9772 69.0727 32.2439C69.1995 32.5106 69.799 32.7003 70.1389 32.4123C70.5236 32.1008 70.5799 31.1636 70.6581 30.2849C70.7459 29.4495 70.9143 28.3833 70.9443 27.6966C70.9895 26.7301 70.815 25.7123 70.2155 25.5226C69.4116 25.2691 69.0182 25.9317 68.2913 25.8834ZM73.5131 30.5428C73.859 30.4665 74.4474 30.3594 74.8922 30.2795C75.5517 30.1658 75.8924 30.0045 76.5424 29.8476C76.9315 29.7618 77.2458 29.3162 77.2574 28.9374C77.2838 28.6867 77.1474 28.1093 77.0675 27.932C76.6166 26.4628 75.5173 25.939 74.1031 26.269C73.5286 26.3776 72.845 26.8547 72.4449 27.4461C71.935 28.0119 71.6897 28.873 71.8283 30.0982C72.0843 31.2794 72.4038 31.7213 73.4833 32.2993C74.1539 32.7498 75.5374 32.7122 76.3017 32.2717C76.5588 32.1017 76.6738 31.6774 76.4012 31.3249C75.9057 30.9491 75.4369 31.66 74.5245 31.367C73.925 31.1773 73.5762 31.0139 73.5131 30.5428ZM73.7897 27.9113C74.7415 27.2934 75.571 27.4369 75.8218 28.5331C75.7273 28.7625 75.2987 28.9567 74.9711 28.9927C74.4736 29.0389 73.595 29.2281 73.3487 29.16C73.2637 28.8977 73.397 28.1656 73.7897 27.9113ZM80.1271 26.5784C80.0164 26.426 79.8025 26.319 79.5921 26.311C78.8374 26.2598 78.8125 26.764 78.5789 27.7812C78.3351 28.8958 78.0957 30.771 77.8783 31.9025C77.8058 32.1905 77.7164 32.5049 77.7546 32.6778C77.8066 32.8522 78.0814 33.05 78.2888 33.0859C78.815 33.1693 79.0825 33.1693 79.2714 32.7105C79.5 32.1433 79.6514 30.5685 79.762 29.9185C79.7869 29.6818 80.801 29.1409 81.3894 29.0338C81.6349 28.9751 82.2497 28.8849 82.5494 28.846C82.8351 28.8057 83.384 28.5396 83.359 27.9739C83.3311 27.7035 83.0159 27.4873 82.7265 27.4288C82.2326 27.3065 81.6383 27.4692 81.2477 27.569C80.885 27.6716 80.3648 28.0674 80.0284 27.9194C80.1045 27.4629 80.2305 27.0679 80.1271 26.5784ZM85.1113 31.7618C85.4572 31.6855 86.0456 31.5784 86.4904 31.4985C87.1499 31.3848 87.4906 31.2235 88.1406 31.0666C88.5297 30.9808 88.844 30.5352 88.8557 30.1564C88.882 29.9058 88.7456 29.3283 88.6657 29.151C88.2148 27.6818 87.1155 27.1581 85.7013 27.488C85.1268 27.5966 84.4432 28.0737 84.0432 28.6652C83.5332 29.231 83.2879 30.092 83.4266 31.3172C83.6825 32.4985 84.0021 32.9403 85.0816 33.5183C85.7521 33.9689 87.1356 33.9313 87.8999 33.4907C88.1571 33.3207 88.2721 32.8964 87.9994 32.544C87.504 32.1681 87.0351 32.879 86.1227 32.586C85.5233 32.3963 85.1744 32.233 85.1113 31.7618ZM85.3879 29.1303C86.3397 28.5124 87.1693 28.6559 87.42 29.7521C87.3256 29.9815 86.8969 30.1757 86.5693 30.2117C86.0718 30.2579 85.1932 30.4471 84.947 30.379C84.8619 30.1167 84.9952 29.3846 85.3879 29.1303Z" fill="white"/>
</svg>
