<svg width="33" height="32" viewBox="0 0 33 32" fill="none" xmlns="http://www.w3.org/2000/svg">
<path fill-rule="evenodd" clip-rule="evenodd" d="M16.5487 31.871C25.314 31.871 32.4197 24.7653 32.4197 16C32.4197 7.23471 25.314 0.129028 16.5487 0.129028C7.7834 0.129028 0.677734 7.23471 0.677734 16C0.677734 24.7653 7.7834 31.871 16.5487 31.871ZM21.4999 7.5224C21.7409 6.66632 20.9102 6.1601 20.1514 6.70064L9.56002 14.2459C8.73719 14.8321 8.86662 16 9.75444 16H12.5434V15.9784H17.9791L13.5501 17.5411L11.5975 24.4776C11.3565 25.3337 12.1872 25.8399 12.946 25.2993L23.5374 17.7541C24.3603 17.1679 24.2308 16 23.343 16H19.1136L21.4999 7.5224Z" fill="#A8FF35"/>
</svg>
