<svg width="60" height="34" viewBox="0 0 60 34" fill="none" xmlns="http://www.w3.org/2000/svg">
<path d="M8.6172 1.66722C8.13724 1.81386 7.78113 1.98759 7.4177 2.23093C6.56629 2.83122 5.94359 3.93418 6.25965 5.34695C6.46791 6.31201 7.15538 7.00366 8.0729 7.38163C8.43419 7.56038 9.24325 7.8988 9.3972 8.30914C9.58268 8.82134 9.2083 9.30284 8.91081 9.45458C8.32682 9.78736 7.63722 9.5178 6.9638 9.63002C6.54832 9.69897 6.27867 9.85363 6.20617 10.1416C6.16369 10.2779 6.1205 10.5549 6.31254 10.8707C6.72226 11.3924 7.64262 11.2076 8.2164 11.2398C9.25329 11.1517 10.0388 10.643 10.4425 10.1505C10.7003 9.83974 10.978 9.2073 11.0607 8.82184C11.2533 7.92707 10.7856 7.01921 10.2404 6.58182C9.44666 5.96346 7.92024 5.88749 7.79397 4.4102C7.74919 3.89872 8.37344 3.31678 9.08131 3.27857C9.5481 3.25724 9.79219 3.74744 9.94685 4.01708C10.1235 4.34535 10.3017 4.92716 10.6483 4.97767C11.1898 5.04866 11.6184 4.31947 11.5634 3.90545C11.5626 3.77867 11.3691 3.20932 11.2379 2.98438C10.9453 1.88377 9.36533 1.37985 8.6172 1.66722ZM13.2261 6.61408C13.7368 6.71 14.3875 6.14491 15.4493 6.08759C15.7651 6.16302 16.1624 6.93678 15.7646 7.37359C15.5125 7.62864 14.3239 7.41925 13.6197 7.55639C13.2167 7.64073 12.6986 7.8819 12.4832 8.05634C12.1447 8.33045 11.7315 8.77972 11.8071 9.53375C11.8152 9.85838 12.0629 10.18 12.2902 10.4292C12.834 11.1479 13.4342 11.4644 14.222 11.871C14.4485 11.9933 15.0091 12.1508 15.2502 12.1339C15.5887 12.1272 16.0034 11.6641 16.1301 11.3958C16.4319 10.6674 16.6517 9.91624 16.8897 9.12479C17.0757 8.42641 17.3899 7.44588 17.3304 6.53869C17.2951 5.80297 16.892 5.0849 16.4098 4.85121C15.5531 4.56409 14.8401 4.78478 13.9161 5.13813C13.4501 5.28623 12.8932 5.49516 12.9043 6.05941C12.9197 6.31442 12.9718 6.48881 13.2261 6.61408ZM14.5374 8.73678C14.8034 8.75066 15.3398 8.73665 15.5047 8.90883C15.4535 9.39615 15.3093 10.3664 14.8659 10.4324C14.2078 10.2647 13.2083 9.86402 13.2792 9.05501C13.5173 8.79849 14.0054 8.70902 14.5374 8.73678ZM20.0903 10.2213C20.066 9.51494 19.9449 8.39012 19.8495 7.69032C19.8025 7.33345 19.7423 6.56696 19.5833 6.33909C19.3011 5.94342 18.583 6.0791 18.328 6.362C18.2635 6.43969 18.0921 6.73137 18.1889 7.14978C18.1964 7.88257 18.7521 9.82731 18.9406 11.1141C19.0155 11.7413 19.0449 12.2653 19.4663 12.4081C20.1544 12.6916 20.772 11.7711 21.1171 11.3006C22.2549 9.71685 22.7127 8.97665 23.2893 8.17855C23.6036 7.73296 24.044 7.42732 23.901 6.77882C23.8034 6.23363 23.2457 6.04832 22.8112 6.29828C22.3027 6.58268 22.0779 7.24882 21.6932 7.82779C21.1591 8.48959 20.6456 9.4914 20.0903 10.2213ZM25.6288 10.9583C25.9747 10.8821 26.5631 10.775 27.0079 10.695C27.6674 10.5813 28.0081 10.4201 28.6581 10.2632C29.0472 10.1774 29.3615 9.73177 29.3731 9.35291C29.3995 9.10229 29.2631 8.52487 29.1832 8.34755C28.7323 6.87837 27.633 6.3546 26.2188 6.68458C25.6443 6.79312 24.9606 7.27027 24.5606 7.8617C24.0507 8.4275 23.8053 9.28857 23.944 10.5138C24.2 11.695 24.5195 12.1368 25.599 12.7148C26.2696 13.1654 27.6531 13.1278 28.4174 12.6873C28.6745 12.5172 28.7895 12.0929 28.5169 11.7405C28.0214 11.3646 27.5526 12.0755 26.6402 11.7826C26.0407 11.5929 25.6919 11.4295 25.6288 10.9583ZM25.9054 8.32681C26.8572 7.70892 27.6867 7.85242 27.9375 8.94864C27.843 9.17802 27.4144 9.37227 27.0868 9.40823C26.5893 9.45448 25.7107 9.64368 25.4644 9.57556C25.3794 9.31324 25.5126 8.58116 25.9054 8.32681ZM35.9127 5.47927C35.317 5.65596 35.3018 6.7383 35.1421 7.45353C34.8031 8.93823 34.6209 10.5379 34.1602 12.1084C33.9829 12.7232 33.6219 13.8818 34.3342 14.0693C34.7042 14.1645 35.2728 13.8442 35.4582 13.554C35.7292 13.1179 35.7005 12.1858 35.8455 11.6098C36.1048 10.4828 36.361 8.84858 36.6415 7.65335C36.7696 7.10373 37.1747 6.32984 37.0457 5.95027C36.902 5.44247 36.2615 5.37515 35.9127 5.47927ZM41.8214 6.19883C39.2881 6.32674 38.3923 8.5553 38.0277 10.4174C37.7618 11.2059 37.5048 12.9808 38.3806 13.6218C38.9691 14.0497 39.8244 14.6182 41.0064 14.4891C44.1954 14.1485 45.0228 9.75897 44.4077 8.24439C44.0859 7.42224 43.2371 6.1224 41.8214 6.19883ZM40.1305 8.89285C40.4265 8.48757 41.0955 7.88217 41.6414 7.9114C42.3544 7.95819 43.0024 9.02577 43.0178 9.54825C43.0605 10.7493 42.309 12.81 40.9988 12.9539C40.4859 13.0126 39.6687 12.617 39.4928 12.148C39.2523 11.4893 39.5217 9.72979 40.1305 8.89285ZM53.3884 7.07672C52.6651 7.1274 52.4864 7.48869 52.0739 8.06473C51.427 8.99622 50.9383 9.76133 50.3384 10.7822C49.9926 11.3934 49.6863 11.8962 49.3142 12.4905C49.0893 12.8892 48.539 13.4367 48.5127 13.9548C48.493 14.5439 49.0405 14.8267 49.6531 14.6236C50.3228 14.4125 50.8004 13.3506 51.1418 12.7811C51.722 11.8145 52.3462 10.6976 53.0664 9.60491C53.3836 9.13148 54.2891 8.01602 54.1652 7.45399C54.1014 7.12351 53.8288 7.03855 53.3884 7.07672ZM48.2654 6.66497C47.5729 6.69072 46.7727 7.07117 46.4907 7.47791C46.043 8.12064 45.9846 9.47998 46.5812 9.965C48.3526 11.4604 50.5947 9.95045 50.3409 8.34713C50.225 7.57479 49.1989 6.62232 48.2654 6.66497ZM48.8366 8.86472C48.6367 9.82911 47.0749 8.74995 48.067 8.15037C48.5397 8.07335 48.9391 8.42503 48.8366 8.86472ZM54.2296 11.529C53.4257 11.5431 52.416 12.0423 52.0592 12.6242C51.531 13.4978 51.6639 14.7787 52.3183 15.1149C52.9324 15.4328 54.0433 15.3103 54.6185 15.061C55.0904 14.8573 55.6949 14.3296 55.8223 13.9206C56.2354 12.669 54.9639 11.5077 54.2296 11.529ZM54.3787 13.4592C54.326 13.9604 53.8556 14.1503 53.4276 13.9364C52.4939 13.4441 54.5053 12.3886 54.3787 13.4592ZM2.60079 24.5155C3.48159 24.4392 4.19243 24.6406 4.95374 24.2279C5.72973 23.9434 6.60091 23.2889 6.998 22.7253C7.65591 21.8232 7.59708 20.5078 7.08693 19.7363C6.27189 18.6511 5.28259 18.4204 3.89757 18.2045C3.32379 18.1723 2.46276 18.1944 2.15361 18.725C1.7786 19.8822 1.43516 21.4086 1.2243 22.6112C1.08009 23.5814 0.951983 24.3985 0.814382 25.4398C0.737532 26.0371 0.480433 26.7421 0.967038 26.934C1.72479 27.2248 2.1585 26.5806 2.30275 25.8778C2.40967 25.3964 2.44989 24.8797 2.60079 24.5155ZM5.66567 22.0081C5.14846 22.911 3.85367 23.3099 2.68851 23.1452C2.71037 22.4014 2.99892 21.2633 3.24866 20.3605C3.42736 19.7317 3.38484 19.6005 4.0297 19.6261C5.3502 19.6523 6.40778 20.7066 5.66567 22.0081ZM9.94296 23.3868C10.2888 23.3105 10.8772 23.2034 11.322 23.1235C11.9815 23.0098 12.3223 22.8485 12.9722 22.6916C13.3613 22.6058 13.6756 22.1602 13.6873 21.7814C13.7136 21.5308 13.5772 20.9533 13.4973 20.776C13.0464 19.3068 11.9472 18.7831 10.5329 19.113C9.95843 19.2216 9.27481 19.6987 8.87479 20.2902C8.36486 20.856 8.11951 21.717 8.2582 22.9422C8.51413 24.1235 8.8337 24.5653 9.91319 25.1433C10.5838 25.5939 11.9673 25.5563 12.7315 25.1157C12.9887 24.9457 13.1037 24.5214 12.831 24.169C12.3356 23.7931 11.8667 24.504 10.9543 24.211C10.3549 24.0213 10.0061 23.858 9.94296 23.3868ZM10.2195 20.7553C11.1713 20.1374 12.0009 20.2809 12.2517 21.3771C12.1572 21.6065 11.7285 21.8007 11.401 21.8367C10.9034 21.8829 10.0248 22.0721 9.7786 22.004C9.69355 21.7417 9.82681 21.0096 10.2195 20.7553ZM16.557 19.4224C16.4463 19.27 16.2323 19.1631 16.022 19.155C15.2672 19.1039 15.2424 19.608 15.0088 20.6252C14.7649 21.7398 14.5256 23.6151 14.3081 24.7465C14.2356 25.0345 14.1463 25.3489 14.1844 25.5218C14.2365 25.6962 14.5113 25.894 14.7187 25.9299C15.2448 26.0134 15.5123 26.0133 15.7013 25.5546C15.9298 24.9874 16.0813 23.4126 16.1918 22.7626C16.2167 22.5259 17.2308 21.9849 17.8192 21.8778C18.0647 21.8192 18.6795 21.7289 18.9792 21.69C19.265 21.6497 19.8138 21.3836 19.7888 20.8179C19.7609 20.5475 19.4458 20.3314 19.1563 20.2728C18.6624 20.1505 18.0681 20.3133 17.6776 20.413C17.3149 20.5156 16.7946 20.9114 16.4583 20.7635C16.5344 20.3069 16.6604 19.9119 16.557 19.4224ZM25.7694 23.0513C25.7144 22.6372 26.4359 20.7282 25.9104 20.2366C25.7705 20.0952 25.4517 20.0476 25.2897 20.115C24.6449 20.357 24.5981 21.07 24.4737 21.986C24.4034 22.3868 24.3016 22.9533 24.183 23.5462C24.049 24.1515 23.9678 24.7905 23.8763 25.2595C23.7606 25.8245 23.6368 26.3323 23.9116 26.5301C24.0545 26.6437 24.5294 26.6795 24.7653 26.5776C25.0306 26.4647 25.2694 26.0675 25.4973 25.641C25.8884 24.8656 26.32 24.3761 26.7772 23.7766C27.0226 23.4504 27.2394 22.9946 27.6505 22.9674C27.8367 23.6064 27.4705 24.4125 27.2911 25.182C27.2186 25.47 27.1138 25.7968 27.1226 25.9808C27.1689 26.7458 28.0497 26.6694 28.5099 26.3096C29.107 25.8515 29.6506 24.9654 30.0939 24.3645C30.2455 24.127 30.4389 23.894 30.7181 23.7826C30.757 24.3497 30.5791 24.8378 30.4582 25.3178C30.3542 25.7714 30.1587 26.4266 30.2035 26.938C30.2813 27.8049 31.3057 27.7014 31.6039 27.1415C31.7614 26.8484 31.8653 26.1273 31.9524 25.7001C32.0454 25.2172 32.126 24.7188 32.2299 24.2652C32.3896 23.55 32.9001 21.7736 32.3138 21.4586C31.6066 21.0887 31.0117 21.9271 30.6769 22.3001C30.4695 22.5317 30.1713 22.8241 29.9625 23.0697C29.7537 23.3152 29.509 23.5006 29.0965 23.8092C29.223 22.4711 29.2374 20.727 27.8547 21.1589C27.3161 21.3275 26.7959 21.9908 26.4442 22.3902C26.2538 22.5954 25.9329 22.9699 25.7694 23.0513ZM36.0016 21.4521C35.5487 21.4748 35.3098 21.6046 34.9493 21.8201C34.3764 22.1822 34.2906 22.328 33.9177 22.7956C33.21 23.6362 32.8885 25.2213 33.5196 26.3153C33.8795 26.7754 34.6402 27.3058 35.343 27.4501C36.1821 27.6368 36.8474 27.4674 37.4131 27.175C38.4023 26.6032 39.1554 25.5984 39.1179 24.4824C39.2495 22.6944 38.0585 21.3022 36.0016 21.4521ZM34.6897 24.9601C34.6427 24.0683 35.4471 22.8437 36.2136 22.7835C37.2072 22.7049 37.9329 23.837 37.5593 24.9802C37.3682 25.5936 36.7138 26.0597 36.269 26.1397C35.3252 26.2798 34.7294 25.6541 34.6897 24.9601ZM41.7114 24.8254C41.6255 23.9013 42.2958 22.2121 41.1599 22.3039C40.5063 22.3619 40.4442 23.3549 40.3329 24.1456C40.1872 25.1297 39.9587 25.9644 39.7588 26.9288C39.5692 27.7957 39.307 28.6832 40.3314 28.5797C40.7147 28.5496 41.3014 27.3866 41.582 26.9937C42.0729 26.3415 41.974 26.3451 42.7667 25.4994C43.0862 25.1388 43.4202 24.639 43.8577 24.6286C43.8754 25.264 43.7648 25.6465 43.611 26.3061C43.4419 26.9781 43.2947 27.7087 43.2648 28.3953C43.5323 28.9302 44.5025 28.8069 44.7333 28.3526C44.8051 28.2053 44.7845 27.8653 44.8108 27.6146C44.9316 26.5997 45.4465 25.049 45.4639 24.0795C45.469 23.6296 45.3004 23.091 45.1435 22.976C44.6386 22.5569 44.056 22.8758 43.6662 23.1023C43.1548 23.4145 42.7181 23.8191 42.3635 24.2464C42.1855 24.467 41.9869 24.615 41.7114 24.8254ZM50.0861 23.0872C50.0324 22.1244 50.3226 21.7748 50.4976 21.0471C50.6741 20.5729 50.7957 20.2197 50.0952 20.1883C48.9894 20.1284 49.0042 21.059 48.794 21.8534C48.7046 22.1678 48.5472 22.9959 48.2929 23.1381C48.0541 23.2678 47.0948 23.1529 46.7951 23.1918C46.505 23.2739 46.239 23.5275 46.1694 23.7877C46.0749 24.0171 46.127 24.4589 46.4033 24.6428C46.7866 24.8802 47.8066 24.551 48.0749 24.9452C47.9343 25.7469 47.8531 26.3859 47.7139 26.9062C47.6736 27.1554 47.3953 28.196 47.3272 28.4422C47.276 28.662 46.8438 29.8273 46.9039 30.0588C46.9809 30.264 47.4133 30.4361 47.724 30.4265C48.4304 30.4023 48.6764 28.8655 48.8236 28.4024C48.8946 28.1283 49.1465 27.0709 49.2037 26.7953C49.2805 26.4656 49.5434 24.9025 49.8313 24.7075C50.1054 24.5111 51.2368 24.7285 51.6919 24.5511C52.0004 24.4287 52.2099 24.0425 52.1658 23.6578C52.0954 22.9887 50.3866 23.4426 50.0861 23.0872ZM54.9755 24.0094C54.8348 24.0087 55.1366 23.0128 55.2677 22.4353C55.3519 22.0359 55.6823 21.4372 55.4646 20.9638C55.3488 20.7264 54.986 20.5616 54.6584 20.5975C54.0173 20.6709 53.898 21.9394 53.7194 22.8356C53.5451 23.6901 53.3693 24.291 53.165 25.2972C52.8443 26.7416 52.6253 27.352 52.3192 28.6572C52.1383 29.4406 52.0717 30.2078 52.6756 30.3557C53.5454 30.5175 53.6171 29.8353 53.7614 29.1325C54.0301 28.0487 54.0711 27.3914 54.3978 26.4262C54.5596 26.0913 54.7897 25.7776 55.0637 25.5812C55.3099 25.3819 55.6396 25.1913 56.0991 25.2396C56.3139 25.4733 56.0913 27.0547 56.0701 27.3903C55.8996 28.8787 55.6302 30.1032 55.757 30.3699C55.8838 30.6366 56.4832 30.8263 56.8232 30.5383C57.2079 30.2268 57.2642 29.2895 57.3424 28.4109C57.4302 27.5755 57.5986 26.5093 57.6285 25.8226C57.6738 24.8561 57.4993 23.8382 56.8998 23.6485C56.0959 23.3951 55.7025 24.0576 54.9755 24.0094Z" fill="white"/>
</svg>
