<svg width="93" height="36" viewBox="0 0 93 36" fill="none" xmlns="http://www.w3.org/2000/svg">
<path d="M18.416 5.89599C17.6553 5.90051 16.9343 6.06404 16.3687 6.62398C16.1474 6.85411 16.0134 7.45942 16.0032 7.82435C15.9835 8.41352 16.52 8.93445 16.9568 9.33229C17.3174 9.65173 18.2129 10.2386 18.0665 10.8285C17.1111 11.8824 16.6822 10.7393 15.8967 10.9805C15.7516 11.0216 15.5684 11.1572 15.5274 11.2795C15.3275 11.9765 15.5034 12.178 16.6591 12.5669C17.1486 12.731 17.9261 12.7001 18.3437 12.4765C18.9248 12.1716 19.4318 11.6336 19.5401 10.8708C19.6763 9.84335 18.8606 9.16638 18.3365 8.66084C18.2215 8.5502 17.5355 8.1121 17.6043 7.72517C17.679 7.28256 18.1377 7.20407 18.8816 7.49341C19.1469 7.64799 19.7361 8.20262 20.038 8.00912C20.186 7.94021 20.5216 7.69394 20.5179 7.32754C20.5134 6.83437 20.007 6.42922 19.4734 6.14791C19.2067 6.00725 18.4871 5.88939 18.416 5.89599ZM23.7845 6.46025C23.3316 6.48304 23.0928 6.61278 22.7323 6.82828C22.1593 7.19037 22.0736 7.33621 21.7007 7.80379C20.9929 8.64441 20.6715 10.2295 21.3026 11.3235C21.6624 11.7836 22.4232 12.314 23.1259 12.4583C23.965 12.645 24.6304 12.4756 25.196 12.1831C26.1852 11.6114 26.9384 10.6066 26.9008 9.49059C27.0324 7.70256 25.8414 6.31044 23.7845 6.46025ZM22.4726 9.96834C22.4256 9.07654 23.23 7.85191 23.9965 7.7917C24.9901 7.71314 25.7158 8.84519 25.3422 9.9884C25.1511 10.6018 24.4968 11.0679 24.052 11.1479C23.1082 11.288 22.5123 10.6623 22.4726 9.96834ZM29.8722 3.69343C28.8947 3.88631 28.8297 5.44204 28.6108 6.58743C28.296 8.24359 27.9986 9.46521 27.6237 11.1573C27.4839 11.8183 26.862 13.583 27.3076 13.8973C27.685 14.1903 28.3262 13.8495 28.5401 13.4215C28.6822 13.1408 28.937 12.0555 29.0212 11.6561C29.4174 9.6284 29.8289 7.85571 30.206 5.74154C30.3619 4.92738 30.8776 3.50348 29.8722 3.69343ZM32.2018 8.0488C30.9964 7.86579 30.7767 8.88441 30.6083 9.95065C30.5505 10.3669 30.4356 11.3261 30.4415 11.8054C30.4585 12.8489 31.0881 13.4218 31.8209 13.6818C33.8325 14.2311 34.7301 13.326 35.341 11.7995C35.5681 11.2462 35.7174 10.6284 35.7899 10.0729C35.8741 9.40609 35.9692 8.23361 35.5903 7.95447C35.3557 7.77497 34.6589 7.8425 34.5036 8.24849C34.3439 8.69625 34.3228 9.83429 34.2027 10.4411C34.0526 11.1995 33.5421 12.441 32.9764 12.466C31.3232 12.6582 32.0564 10.3703 32.2834 9.28208C32.3844 8.85631 32.5529 8.32501 32.2018 8.0488ZM40.3029 8.35125C40.2492 7.38837 40.5394 7.03878 40.7144 6.31109C40.8909 5.83694 41.0125 5.48372 40.3119 5.45231C39.2062 5.3924 39.221 6.32305 39.0108 7.11743C38.9214 7.43181 38.764 8.25989 38.5097 8.40209C38.2709 8.53183 37.3116 8.41694 37.0119 8.45582C36.7217 8.53794 36.4558 8.79153 36.3862 9.05168C36.2917 9.28106 36.3438 9.72293 36.6201 9.90681C37.0034 10.1442 38.0234 9.81499 38.2917 10.2092C38.1511 11.0109 38.0698 11.6499 37.9307 12.1702C37.8904 12.4194 37.6121 13.46 37.544 13.7062C37.4928 13.926 37.0606 15.0913 37.1207 15.3228C37.1977 15.528 37.6301 15.7001 37.9408 15.6905C38.6472 15.6663 38.8932 14.1295 39.0404 13.6664C39.1114 13.3923 39.3633 12.3349 39.4204 12.0593C39.4973 11.7296 39.7602 10.1665 40.0481 9.97149C40.3222 9.77506 41.4536 9.99252 41.9087 9.81512C42.2171 9.69269 42.4267 9.30648 42.3826 8.92177C42.3122 8.25274 40.6034 8.70661 40.3029 8.35125ZM44.5742 6.98424C44.1895 7.02826 43.8129 7.39692 43.8108 7.81901C43.8065 8.66319 45.3212 8.58308 45.3965 7.73229C45.4353 7.22959 45.0718 6.93799 44.5742 6.98424ZM44.2001 9.33803C43.526 9.32348 43.2366 10.0673 43.0645 10.7672C42.8566 11.6744 42.6259 12.6637 42.4135 13.6127C42.2868 14.1484 42.103 14.6921 42.3148 14.9537C42.6124 15.3369 43.5049 15.1492 43.7408 14.7798C43.9108 14.5021 43.9509 13.718 44.0315 13.2197C44.1669 12.333 44.3896 11.554 44.6261 10.7764C44.7477 10.4232 44.9096 10.0883 44.8869 9.9029C44.8553 9.53358 44.398 9.33067 44.2001 9.33803ZM48.1639 9.02263C47.711 9.04541 47.4722 9.17515 47.1117 9.39065C46.5387 9.75274 46.453 9.89858 46.08 10.3662C45.3723 11.2068 45.0508 12.7919 45.6819 13.8858C46.0418 14.346 46.8025 14.8764 47.5053 15.0206C48.3444 15.2074 49.0097 15.038 49.5754 14.7455C50.5646 14.1738 51.3178 13.169 51.2802 12.053C51.4118 10.2649 50.2208 8.87281 48.1639 9.02263ZM46.852 12.5307C46.805 11.6389 47.6094 10.4143 48.3759 10.3541C49.3695 10.2755 50.0952 11.4076 49.7216 12.5508C49.5305 13.1642 48.8762 13.6303 48.4314 13.7103C47.4875 13.8504 46.8917 13.2247 46.852 12.5307ZM53.8737 12.3959C53.7878 11.4719 54.4581 9.78271 53.3223 9.87449C52.6686 9.93248 52.6065 10.9254 52.4952 11.7161C52.3496 12.7003 52.1211 13.535 51.9212 14.4994C51.7315 15.3663 51.4693 16.2537 52.4937 16.1503C52.877 16.1202 53.4638 14.9571 53.7444 14.5643C54.2352 13.912 54.1363 13.9157 54.929 13.0699C55.2485 12.7094 55.5826 12.2095 56.02 12.1992C56.0377 12.8345 55.9271 13.2171 55.7733 13.8766C55.6042 14.5486 55.457 15.2792 55.4271 15.9659C55.6946 16.5008 56.6648 16.3775 56.8956 15.9231C56.9674 15.7758 56.9468 15.4358 56.9731 15.1852C57.0939 14.1703 57.6088 12.6196 57.6262 11.6501C57.6313 11.2002 57.4627 10.6616 57.3058 10.5466C56.8009 10.1275 56.2183 10.4463 55.8285 10.6728C55.3171 10.9851 54.8804 11.3897 54.5258 11.8169C54.3478 12.0375 54.1492 12.1856 53.8737 12.3959ZM64.795 14.4729C65.2361 14.294 65.7521 14.475 66.2914 14.4331C66.8029 14.3883 67.0028 13.4239 66.3982 13.1492C65.724 12.8672 65.4624 13.079 65.0359 12.8512C64.8511 12.4658 65.1968 10.7847 65.3242 10.3758C65.5351 9.70817 65.8801 8.43525 66.5345 8.50403C66.9243 8.54501 66.9677 9.07041 67.0637 9.36205C67.1597 9.65369 67.2411 10.0846 67.5042 10.1263C67.8142 10.2574 68.2993 10.1958 68.4531 9.80371C68.5923 9.55087 68.601 8.93239 68.3796 8.36012C68.0813 7.58267 67.5089 7.00165 66.5262 7.10953C65.5157 7.21448 64.9244 7.88434 64.4028 8.829C63.9347 9.66665 63.7443 10.4068 63.5202 11.4672C63.4477 11.7552 63.4683 12.3627 63.3255 12.5166C63.1504 12.7093 63.3123 12.6419 62.921 12.6148C62.5575 12.5907 62.1318 12.7571 62.041 13.0854C61.9831 13.2342 61.9069 13.4233 62.0799 13.6526C62.516 14.1911 62.5035 13.9083 63.1682 14.1471C63.2782 14.9751 62.8798 16.355 62.9957 17.1274C63.0727 17.6 64.0847 17.7486 64.3382 17.2122C64.6341 16.5394 64.5745 14.8298 64.795 14.4729ZM70.5037 11.3706C70.0509 11.3934 69.812 11.5232 69.4515 11.7387C68.8785 12.1008 68.7928 12.2466 68.4199 12.7142C67.7121 13.5548 67.3907 15.1399 68.0218 16.2338C68.3817 16.694 69.1424 17.2244 69.8452 17.3687C70.6842 17.5554 71.3496 17.386 71.9153 17.0935C72.9044 16.5218 73.6576 15.517 73.62 14.401C73.7517 12.6129 72.5607 11.2208 70.5037 11.3706ZM69.1918 14.8787C69.1448 13.9869 69.9492 12.7623 70.7157 12.7021C71.7094 12.6235 72.435 13.7556 72.0615 14.8988C71.8703 15.5122 71.216 15.9783 70.7712 16.0583C69.8274 16.1984 69.2315 15.5727 69.1918 14.8787ZM76.4447 12.0091C76.334 11.8567 76.12 11.7498 75.9097 11.7417C75.1549 11.6906 75.1301 12.1947 74.8965 13.2119C74.6526 14.3265 74.4133 16.2018 74.1958 17.3332C74.1233 17.6212 74.034 17.9356 74.0721 18.1085C74.1242 18.2829 74.399 18.4808 74.6064 18.5166C75.1326 18.6001 75.4 18.6 75.589 18.1413C75.8176 17.5741 75.969 15.9993 76.0795 15.3493C76.1044 15.1126 77.1185 14.5716 77.7069 14.4645C77.9524 14.4059 78.5672 14.3156 78.8669 14.2767C79.1527 14.2364 79.7015 13.9703 79.6765 13.4046C79.6486 13.1342 79.3335 12.9181 79.044 12.8595C78.5501 12.7372 77.9558 12.9 77.5653 12.9997C77.2026 13.1023 76.6823 13.4981 76.346 13.3502C76.4221 12.8936 76.5481 12.4986 76.4447 12.0091ZM5.19261 26.2835C5.83237 26.4915 6.25296 26.2401 6.39796 25.6641C6.66526 24.5941 6.73024 23.0384 6.91981 21.6365C7.09625 20.6275 7.34888 19.4293 7.5451 18.366C7.71352 17.5672 8.1808 16.0678 7.48242 15.8818C7.26697 15.7888 6.79872 15.824 6.68223 15.9948C6.28736 16.6712 6.39979 18.682 5.76819 19.0661C4.87709 18.9724 4.08568 19.0019 3.33608 19.3032C2.65756 19.5979 2.15787 20.0662 1.77178 20.6591C1.45602 21.1186 1.21799 21.91 1.33682 22.6545C1.45857 23.3712 2.1248 24.131 2.7023 24.5295C3.33404 24.9479 4.07636 24.9837 4.82458 25.2312C4.97486 25.5426 4.88847 26.0966 5.19261 26.2835ZM5.36199 22.2611C5.27485 22.6884 5.19512 23.5809 5.02369 23.8726C4.3532 23.957 3.38509 23.3907 3.03692 22.8192C2.46226 21.8578 3.28792 20.565 4.32848 20.5759C4.97481 20.5875 5.32653 20.4555 5.50758 20.742C5.57431 21.0447 5.45059 21.82 5.36199 22.2611ZM9.9478 17.422C9.56309 17.466 9.18649 17.8347 9.18436 18.2567C9.1801 19.1009 10.6948 19.0208 10.7701 18.17C10.8089 17.6673 10.4454 17.3757 9.9478 17.422ZM9.57371 19.7758C8.89954 19.7612 8.6102 20.505 8.43811 21.2049C8.23014 22.1121 7.99946 23.1014 7.7871 24.0504C7.66041 24.5861 7.47657 25.1299 7.68838 25.3915C7.98596 25.7747 8.87847 25.5869 9.11437 25.2176C9.28434 24.9398 9.32452 24.1557 9.40505 23.6574C9.54047 22.7707 9.76312 21.9917 9.99969 21.2142C10.1213 20.8609 10.2832 20.526 10.2604 20.3406C10.2289 19.9713 9.77157 19.7684 9.57371 19.7758ZM13.6349 19.4706C12.8743 19.4751 12.1532 19.6386 11.5876 20.1986C11.3663 20.4287 11.2323 21.034 11.2221 21.399C11.2024 21.9881 11.7389 22.5091 12.1757 22.9069C12.5363 23.2263 13.4319 23.8132 13.2854 24.4031C12.33 25.457 11.9012 24.3139 11.1156 24.5551C10.9706 24.5962 10.7874 24.7318 10.7464 24.8542C10.5464 25.5511 10.7223 25.7526 11.878 26.1415C12.3675 26.3056 13.145 26.2747 13.5627 26.0511C14.1437 25.7462 14.6507 25.2082 14.7591 24.4454C14.8952 23.418 14.0795 22.741 13.5555 22.2354C13.4404 22.1248 12.7545 21.6867 12.8233 21.2998C12.8979 20.8572 13.3567 20.7787 14.1005 21.068C14.3658 21.2226 14.955 21.7772 15.2569 21.5837C15.4049 21.5148 15.7405 21.2685 15.7368 20.9021C15.7323 20.409 15.2259 20.0038 14.6924 19.7225C14.4256 19.5819 13.706 19.464 13.6349 19.4706ZM21.2474 25.6059C21.0106 24.7786 20.3497 25.1737 19.5443 25.2017C18.4561 25.2422 17.8493 24.5871 17.6791 23.795C17.5215 23.0183 18.4886 22.1205 19.5043 22.1005C19.8846 22.0983 20.2459 22.277 20.7281 22.2432C21.1098 22.227 21.5062 21.8042 21.438 21.248C21.3639 20.7475 19.9466 20.5704 19.4952 20.5792C18.2847 20.5787 17.2383 21.1585 16.6105 22.1765C16.3123 22.7364 16.067 23.5974 16.1946 24.2584C16.5473 25.5905 17.4597 26.4185 18.8909 26.597C20.1828 26.761 21.4542 26.3174 21.2474 25.6059ZM25.0541 20.6708C24.6012 20.6936 24.3624 20.8233 24.0019 21.0388C23.4289 21.4009 23.3432 21.5468 22.9702 22.0143C22.2625 22.855 21.9411 24.4401 22.5722 25.534C22.932 25.9942 23.6928 26.5246 24.3955 26.6688C25.2346 26.8556 25.9 26.6862 26.4656 26.3937C27.4548 25.822 28.208 24.8172 28.1704 23.7011C28.302 21.9131 27.111 20.521 25.0541 20.6708ZM23.7422 24.1789C23.6952 23.2871 24.4996 22.0625 25.2661 22.0023C26.2597 21.9237 26.9854 23.0557 26.6118 24.199C26.4207 24.8123 25.7664 25.2785 25.3216 25.3584C24.3778 25.4986 23.7819 24.8728 23.7422 24.1789ZM30.9166 25.8057C30.8923 25.0993 30.7712 23.9745 30.6759 23.2747C30.6289 22.9178 30.5687 22.1513 30.4097 21.9235C30.1275 21.5278 29.4093 21.6635 29.1544 21.9464C29.0899 22.0241 28.9185 22.3158 29.0153 22.7342C29.0227 23.467 29.5785 25.4117 29.767 26.6985C29.8419 27.3257 29.8712 27.8497 30.2926 27.9925C30.9808 28.276 31.5984 27.3555 31.9434 26.885C33.0812 25.3012 33.5391 24.561 34.1157 23.7629C34.43 23.3173 34.8703 23.0117 34.7273 22.3632C34.6298 21.818 34.0721 21.6327 33.6376 21.8827C33.1291 22.1671 32.9042 22.8332 32.5196 23.4122C31.9855 24.074 31.472 25.0758 30.9166 25.8057ZM36.4552 26.5427C36.801 26.4664 37.3894 26.3594 37.8342 26.2794C38.4937 26.1657 38.8345 26.0045 39.4844 25.8475C39.8735 25.7617 40.1878 25.3162 40.1995 24.9373C40.2258 24.6867 40.0894 24.1093 40.0095 23.9319C39.5586 22.4628 38.4594 21.939 37.0451 22.269C36.4706 22.3775 35.787 22.8547 35.387 23.4461C34.8771 24.0119 34.6317 24.873 34.7704 26.0982C35.0263 27.2794 35.3459 27.7212 36.4254 28.2992C37.096 28.7498 38.4795 28.7122 39.2437 28.2717C39.5009 28.1016 39.6159 27.6773 39.3432 27.3249C38.8478 26.949 38.3789 27.6599 37.4665 27.3669C36.8671 27.1772 36.5183 27.0139 36.4552 26.5427ZM36.7317 23.9112C37.6835 23.2933 38.5131 23.4368 38.7639 24.533C38.6694 24.7624 38.2407 24.9567 37.9132 24.9926C37.4156 25.0389 36.537 25.2281 36.2908 25.16C36.2058 24.8976 36.339 24.1655 36.7317 23.9112ZM43.0692 22.5783C42.9585 22.4259 42.7445 22.319 42.5342 22.311C41.7794 22.2598 41.7546 22.7639 41.521 23.7811C41.2771 24.8957 41.0378 26.771 40.8203 27.9024C40.7478 28.1904 40.6585 28.5048 40.6966 28.6778C40.7487 28.8522 41.0235 29.05 41.2309 29.0858C41.757 29.1693 42.0245 29.1693 42.2135 28.7105C42.442 28.1433 42.5935 26.5685 42.704 25.9185C42.7289 25.6818 43.743 25.1408 44.3314 25.0337C44.5769 24.9751 45.1917 24.8848 45.4914 24.846C45.7772 24.8056 46.326 24.5395 46.301 23.9738C46.2731 23.7034 45.958 23.4873 45.6685 23.4287C45.1746 23.3064 44.5803 23.4692 44.1898 23.5689C43.8271 23.6716 43.3068 24.0673 42.9705 23.9194C43.0466 23.4628 43.1726 23.0678 43.0692 22.5783ZM51.7495 25.1095C52.2602 25.2055 52.9109 24.6404 53.9727 24.5831C54.2885 24.6585 54.6858 25.4322 54.288 25.8691C54.0359 26.1241 52.8473 25.9147 52.1431 26.0519C51.7401 26.1362 51.2221 26.3774 51.0066 26.5518C50.6681 26.8259 50.2549 27.2752 50.3305 28.0292C50.3386 28.3538 50.5864 28.6755 50.8136 28.9246C51.3574 29.6434 51.9576 29.9599 52.7454 30.3665C52.9719 30.4888 53.5325 30.6463 53.7736 30.6294C54.1121 30.6227 54.5268 30.1595 54.6536 29.8913C54.9553 29.1629 55.1751 28.4117 55.4131 27.6203C55.5991 26.9219 55.9133 25.9413 55.8538 25.0342C55.8185 24.2984 55.4154 23.5804 54.9332 23.3467C54.0765 23.0596 53.3635 23.2802 52.4395 23.6336C51.9735 23.7817 51.4166 23.9906 51.4277 24.5549C51.4431 24.8099 51.4952 24.9843 51.7495 25.1095ZM53.0608 27.2322C53.3268 27.2461 53.8632 27.2321 54.0281 27.4043C53.9769 27.8916 53.8327 28.8619 53.3893 28.9279C52.7313 28.7602 51.7317 28.3595 51.8026 27.5505C52.0407 27.294 52.5288 27.2045 53.0608 27.2322ZM64.2522 24.9455C64.1986 23.9827 64.4887 23.6331 64.6637 22.9054C64.8403 22.4312 64.9619 22.078 64.2613 22.0466C63.1555 21.9867 63.1703 22.9173 62.9601 23.7117C62.8708 24.0261 62.7134 24.8542 62.4591 24.9964C62.2202 25.1261 61.261 25.0112 60.9613 25.0501C60.6711 25.1322 60.4051 25.3858 60.3356 25.646C60.2411 25.8754 60.2932 26.3172 60.5695 26.5011C60.9527 26.7385 61.9727 26.4093 62.241 26.8035C62.1004 27.6052 62.0192 28.2442 61.88 28.7645C61.8398 29.0137 61.5615 30.0543 61.4934 30.3005C61.4421 30.5203 61.0099 31.6856 61.0701 31.9171C61.147 32.1223 61.5794 32.2944 61.8901 32.2848C62.5965 32.2605 62.8425 30.7238 62.9897 30.2607C63.0608 29.9866 63.3127 28.9292 63.3698 28.6536C63.4467 28.3238 63.7095 26.7608 63.9975 26.5658C64.2715 26.3694 65.403 26.5868 65.858 26.4094C66.1665 26.287 66.376 25.9008 66.332 25.5161C66.2615 24.847 64.5527 25.3009 64.2522 24.9455ZM68.7811 25.2808C68.6704 25.1284 68.4564 25.0214 68.2461 25.0134C67.4913 24.9622 67.4665 25.4664 67.2329 26.4835C66.989 27.5981 66.7497 29.4734 66.5322 30.6049C66.4597 30.8929 66.3704 31.2073 66.4085 31.3802C66.4606 31.5546 66.7354 31.7524 66.9428 31.7883C67.4689 31.8717 67.7364 31.8717 67.9254 31.4129C68.1539 30.8457 68.3054 29.2709 68.4159 28.6209C68.4408 28.3842 69.4549 27.8432 70.0433 27.7362C70.2888 27.6775 70.9036 27.5873 71.2033 27.5484C71.4891 27.508 72.0379 27.2419 72.0129 26.6762C71.985 26.4058 71.6699 26.1897 71.3804 26.1311C70.8865 26.0088 70.2922 26.1716 69.9017 26.2713C69.5389 26.374 69.0187 26.7698 68.6823 26.6218C68.7585 26.1653 68.8845 25.7703 68.7811 25.2808ZM73.7653 30.4642C74.1111 30.3879 74.6996 30.2808 75.1444 30.2009C75.8038 30.0872 76.1446 29.9259 76.7945 29.769C77.1836 29.6832 77.4979 29.2376 77.5096 28.8588C77.5359 28.6081 77.3995 28.0307 77.3196 27.8534C76.8687 26.3842 75.7695 25.8604 74.3552 26.1904C73.7807 26.299 73.0971 26.7761 72.6971 27.3675C72.1872 27.9333 71.9418 28.7944 72.0805 30.0196C72.3364 31.2008 72.656 31.6427 73.7355 32.2207C74.4061 32.6712 75.7896 32.6336 76.5538 32.1931C76.811 32.0231 76.926 31.5988 76.6533 31.2463C76.1579 30.8705 75.689 31.5814 74.7767 31.2884C74.1772 31.0987 73.8284 30.9353 73.7653 30.4642ZM74.0419 27.8327C74.9937 27.2148 75.8232 27.3583 76.074 28.4545C75.9795 28.6839 75.5508 28.8781 75.2233 28.9141C74.7257 28.9603 73.8471 29.1495 73.6009 29.0814C73.5159 28.8191 73.6491 28.087 74.0419 27.8327ZM80.1482 29.2346C80.0623 28.3106 80.7325 26.6214 79.5967 26.7132C78.9431 26.7712 78.8809 27.7641 78.7697 28.5548C78.624 29.539 78.3955 30.3737 78.1956 31.338C78.0059 32.205 77.7437 33.0924 78.7682 32.9889C79.1514 32.9588 79.7382 31.7958 80.0188 31.403C80.5097 30.7507 80.4107 30.7544 81.2035 29.9086C81.5229 29.548 81.857 29.0482 82.2945 29.0379C82.3122 29.6732 82.2016 30.0558 82.0478 30.7153C81.8786 31.3873 81.7314 32.1179 81.7015 32.8045C81.9691 33.3394 82.9393 33.2162 83.17 32.7618C83.2418 32.6145 83.2212 32.2745 83.2476 32.0239C83.3683 31.0089 83.8832 29.4583 83.9007 28.4888C83.9057 28.0388 83.7371 27.5003 83.5803 27.3852C83.0753 26.9662 82.4928 27.285 82.103 27.5115C81.5915 27.8238 81.1549 28.2283 80.8003 28.6556C80.6222 28.8762 80.4237 29.0243 80.1482 29.2346ZM88.3789 35.0267C89.0187 35.2347 89.4393 34.9833 89.5843 34.4073C89.8516 33.3374 89.9166 31.7816 90.1061 30.3798C90.2826 29.3707 90.5352 28.1725 90.7314 27.1092C90.8998 26.3105 91.3671 24.8111 90.6687 24.6251C90.4533 24.532 89.985 24.5673 89.8685 24.738C89.4737 25.4145 89.5861 27.4252 88.9545 27.8093C88.0634 27.7157 87.272 27.7451 86.5224 28.0464C85.8439 28.3411 85.3442 28.8094 84.9581 29.4023C84.6423 29.8618 84.4043 30.6533 84.5231 31.3978C84.6449 32.1144 85.3111 32.8742 85.8886 33.2728C86.5204 33.6911 87.2627 33.7269 88.0109 33.9745C88.1612 34.2859 88.0748 34.8399 88.3789 35.0267ZM88.5483 31.0044C88.4612 31.4316 88.3814 32.3242 88.21 32.6158C87.5395 32.7002 86.5714 32.1339 86.2232 31.5624C85.6486 30.6011 86.4742 29.3083 87.5148 29.3191C88.1611 29.3307 88.5129 29.1988 88.6939 29.4853C88.7606 29.7879 88.6369 30.5632 88.5483 31.0044Z" fill="black"/>
</svg>
