<svg width="76" height="34" viewBox="0 0 76 34" fill="none" xmlns="http://www.w3.org/2000/svg">
<path d="M6.18693 5.79539C5.71199 5.22462 5.65471 4.43028 5.36512 3.5693C5.24708 3.21904 5.10559 2.82409 4.95164 2.41375C4.87759 2.18073 4.7016 1.4443 4.53377 1.29996C3.98997 0.848649 3.05577 1.56693 2.99723 2.12387C2.96358 2.4441 3.15269 2.78775 3.28465 3.13947C3.40561 3.46188 3.54856 3.84291 3.64607 4.12063C3.86015 4.76252 4.24569 5.3802 4.41361 6.05948C4.50672 6.37896 4.71415 6.6823 4.80727 7.00179C4.95612 7.59459 4.88659 8.12222 4.76433 8.88361C4.66185 9.59077 3.99675 11.365 4.83437 11.5656C5.30337 11.6571 5.71296 11.3764 5.8353 11.15C5.89463 10.9873 5.98908 10.4904 6.04619 10.2149C6.15603 9.70558 6.25709 9.27982 6.32516 8.76612C6.38006 8.37773 6.47229 7.76803 6.56972 7.5108C6.65175 7.26604 6.85909 7.03444 7.06937 6.775C7.23494 6.53901 7.39905 6.31695 7.57708 6.09635C8.46726 4.99336 8.92739 4.63348 9.89086 3.63673C10.0967 3.41906 10.828 2.8906 10.729 2.35934C10.6344 1.78631 9.91695 1.7813 9.67515 1.93889C9.56891 2.01218 9.30516 2.37862 9.17621 2.53399C9.02895 2.72967 8.83992 2.92096 8.69851 3.06095C8.11018 3.70297 7.62956 4.25777 7.06907 4.90271C6.79725 5.21199 6.58334 5.63998 6.18693 5.79539ZM11.2697 5.09083C10.8168 5.11361 10.578 5.24336 10.2175 5.45885C9.64446 5.82094 9.55875 5.96678 9.18583 6.43436C8.47808 7.27499 8.15664 8.86007 8.78774 9.95403C9.14762 10.4142 9.90834 10.9446 10.6111 11.0888C11.4502 11.2756 12.1155 11.1062 12.6812 10.8137C13.6704 10.242 14.4235 9.23721 14.386 8.12117C14.5176 6.33313 13.3266 4.94101 11.2697 5.09083ZM9.9578 8.59891C9.91076 7.70711 10.7152 6.48249 11.4817 6.42228C12.4753 6.34371 13.201 7.47577 12.8274 8.61898C12.6363 9.23236 11.982 9.69852 11.5372 9.77846C10.5933 9.91858 9.99748 9.29286 9.9578 8.59891ZM16.7909 6.37498C15.5854 6.19197 15.3657 7.21059 15.1973 8.27683C15.1395 8.69307 15.0246 9.65231 15.0305 10.1316C15.0476 11.1751 15.6771 11.748 16.41 12.008C18.4216 12.5573 19.3191 11.6522 19.93 10.1257C20.1571 9.57236 20.3065 8.95459 20.3789 8.39912C20.4631 7.73227 20.5582 6.55979 20.1793 6.28065C19.9448 6.10115 19.2479 6.16868 19.0926 6.57467C18.9329 7.02243 18.9118 8.16046 18.7918 8.76724C18.6417 9.5257 18.1311 10.7671 17.5654 10.7921C15.9122 10.9844 16.6454 8.69649 16.8724 7.60826C16.9734 7.18249 17.1419 6.65119 16.7909 6.37498ZM26.8754 3.66224C26.276 3.74001 25.8878 4.75499 26.54 4.97839C27.0698 5.16077 27.8231 4.69094 27.7468 4.0776C27.6998 3.72074 27.3048 3.59476 26.8754 3.66224ZM26.456 6.9826C25.8999 7.05083 25.8215 7.662 25.7066 8.0863C25.6582 8.2783 25.5037 9.07853 25.4503 9.453C25.3266 10.4958 25.1164 11.2902 24.8689 12.3059C24.5093 13.718 24.1586 15.5816 23.1064 15.9496C22.7854 16.0566 21.7104 15.9718 21.6196 16.5676C21.5303 17.1494 22.2947 17.5113 22.908 17.435C23.1213 17.4152 23.4671 17.3389 23.6877 17.2495C23.9376 17.149 24.1933 16.9929 24.3442 16.8962C24.6769 16.6777 25.2711 15.98 25.4637 15.6202C25.641 15.2728 25.7186 14.8024 25.8798 14.3407C26.0057 13.9457 26.1068 13.5199 26.2064 13.1081C26.3946 12.2551 26.6429 11.3661 26.7864 10.5366C26.8969 9.88659 27.0031 9.27835 27.1231 8.67158C27.189 8.3125 27.3963 7.81344 27.2717 7.3921C27.1896 7.10193 26.8283 6.92318 26.456 6.9826ZM29.708 7.73263C28.5025 7.54962 28.2828 8.56823 28.1145 9.63448C28.0566 10.0507 27.9417 11.01 27.9477 11.4892C27.9647 12.5327 28.5943 13.1056 29.3271 13.3657C31.3387 13.9149 32.2362 13.0098 32.8471 11.4833C33.0742 10.93 33.2236 10.3122 33.2961 9.75677C33.3802 9.08991 33.4753 7.91743 33.0964 7.6383C32.8619 7.4588 32.165 7.52632 32.0097 7.93232C31.85 8.38008 31.829 9.51811 31.7089 10.1249C31.5588 10.8833 31.0482 12.1248 30.4825 12.1498C28.8294 12.342 29.5625 10.0541 29.7895 8.9659C29.8906 8.54014 30.059 8.00883 29.708 7.73263ZM36.7391 7.76777C35.9785 7.77229 35.2574 7.93581 34.6918 8.49576C34.4705 8.72589 34.3365 9.3312 34.3263 9.69613C34.3066 10.2853 34.8431 10.8062 35.2799 11.2041C35.6405 11.5235 36.5361 12.1103 36.3896 12.7003C35.4342 13.7542 35.0054 12.6111 34.2198 12.8523C34.0747 12.8933 33.8916 13.0289 33.8506 13.1513C33.6506 13.8482 33.8265 14.0497 34.9822 14.4387C35.4717 14.6027 36.2492 14.5718 36.6669 14.3483C37.2479 14.0433 37.7549 13.5054 37.8633 12.7425C37.9994 11.7151 37.1837 11.0382 36.6597 10.5326C36.5446 10.422 35.8586 9.98388 35.9275 9.59695C36.0021 9.15433 36.4609 9.07585 37.2047 9.36519C37.47 9.51977 38.0592 10.0744 38.3611 9.88089C38.5091 9.81199 38.8447 9.56571 38.841 9.19932C38.8365 8.70615 38.3301 8.30099 37.7966 8.01969C37.5298 7.87903 36.8102 7.76116 36.7391 7.76777ZM43.275 8.60957C43.2214 7.64669 43.5115 7.2971 43.6865 6.56941C43.8631 6.09526 43.9846 5.74204 43.2841 5.71064C42.1783 5.65072 42.1931 6.58137 41.9829 7.37575C41.8936 7.69013 41.7361 8.51821 41.4819 8.66042C41.243 8.79016 40.2838 8.67526 39.9841 8.71414C39.6939 8.79626 39.4279 9.04985 39.3583 9.31C39.2639 9.53938 39.3159 9.98125 39.5922 10.1651C39.9755 10.4025 40.9955 10.0733 41.2638 10.4675C41.1232 11.2692 41.042 11.9082 40.9028 12.4285C40.8626 12.6777 40.5843 13.7183 40.5162 13.9645C40.4649 14.1844 40.0327 15.3496 40.0929 15.5811C40.1698 15.7863 40.6022 15.9584 40.9129 15.9489C41.6193 15.9246 41.8653 14.3879 42.0125 13.9247C42.0836 13.6506 42.3355 12.5932 42.3926 12.3176C42.4695 11.9879 42.7323 10.4248 43.0203 10.2298C43.2943 10.0334 44.4258 10.2508 44.8808 10.0734C45.1893 9.95101 45.3988 9.5648 45.3548 9.18009C45.2843 8.51106 43.5755 8.96493 43.275 8.60957ZM51.4071 12.0826C51.3212 11.1586 51.9914 9.46939 50.8556 9.56117C50.202 9.61916 50.1398 10.6121 50.0286 11.4028C49.8829 12.387 49.6544 13.2217 49.4545 14.1861C49.2648 15.053 49.0026 15.9404 50.0271 15.8369C50.4103 15.8068 50.9971 14.6438 51.2777 14.251C51.7686 13.5987 51.6696 13.6024 52.4624 12.7566C52.7818 12.396 53.1159 11.8962 53.5534 11.8859C53.5711 12.5212 53.4605 12.9038 53.3067 13.5633C53.1375 14.2353 52.9904 14.9659 52.9604 15.6526C53.228 16.1874 54.1982 16.0642 54.4289 15.6098C54.5007 15.4625 54.4801 15.1225 54.5065 14.8719C54.6272 13.8569 55.1421 12.3063 55.1596 11.3368C55.1646 10.8868 54.996 10.3483 54.8392 10.2332C54.3342 9.81417 53.7517 10.133 53.3619 10.3595C52.8504 10.6718 52.4138 11.0763 52.0592 11.5036C51.8811 11.7242 51.6826 11.8723 51.4071 12.0826ZM57.683 14.6427C58.0288 14.5664 58.6173 14.4593 59.062 14.3794C59.7215 14.2657 60.0623 14.1044 60.7122 13.9475C61.1013 13.8617 61.4156 13.4161 61.4273 13.0373C61.4536 12.7866 61.3172 12.2092 61.2373 12.0319C60.7864 10.5627 59.6872 10.0389 58.2729 10.3689C57.6984 10.4775 57.0148 10.9546 56.6148 11.546C56.1049 12.1118 55.8595 12.9729 55.9982 14.1981C56.2541 15.3793 56.5737 15.8212 57.6532 16.3992C58.3238 16.8497 59.7073 16.8121 60.4715 16.3716C60.7287 16.2016 60.8437 15.7773 60.571 15.4248C60.0756 15.049 59.6067 15.7599 58.6944 15.4669C58.0949 15.2772 57.7461 15.1138 57.683 14.6427ZM57.9596 12.0112C58.9114 11.3933 59.7409 11.5368 59.9917 12.633C59.8972 12.8624 59.4685 13.0566 59.141 13.0926C58.6434 13.1388 57.7648 13.328 57.5186 13.2599C57.4336 12.9976 57.5668 12.2655 57.9596 12.0112ZM63.924 15.2986C64.2699 15.2224 64.8583 15.1153 65.3031 15.0353C65.9626 14.9216 66.3033 14.7604 66.9532 14.6035C67.3423 14.5177 67.6566 14.0721 67.6683 13.6932C67.6947 13.4426 67.5583 12.8652 67.4784 12.6878C67.0275 11.2187 65.9282 10.6949 64.5139 11.0249C63.9395 11.1334 63.2558 11.6106 62.8558 12.202C62.3459 12.7678 62.1005 13.6289 62.2392 14.8541C62.4952 16.0353 62.8147 16.4771 63.8942 17.0551C64.5648 17.5057 65.9483 17.4681 66.7125 17.0276C66.9697 16.8575 67.0847 16.4332 66.812 16.0808C66.3166 15.7049 65.8477 16.4158 64.9354 16.1229C64.3359 15.9332 63.9871 15.7698 63.924 15.2986ZM64.2006 12.6671C65.1524 12.0492 65.9819 12.1927 66.2327 13.2889C66.1382 13.5183 65.7096 13.7126 65.382 13.7485C64.8844 13.7948 64.0059 13.984 63.7596 13.9159C63.6746 13.6535 63.8078 12.9215 64.2006 12.6671ZM72.1199 19.1866C72.7596 19.3946 73.1802 19.1432 73.3252 18.5672C73.5925 17.4973 73.6575 15.9416 73.8471 14.5397C74.0235 13.5306 74.2761 12.3325 74.4724 11.2691C74.6408 10.4704 75.1081 8.97101 74.4097 8.78499C74.1942 8.69196 73.726 8.72721 73.6095 8.89796C73.2146 9.5744 73.327 11.5852 72.6954 11.9692C71.8044 11.8756 71.0129 11.905 70.2633 12.2063C69.5848 12.501 69.0851 12.9693 68.699 13.5622C68.3833 14.0217 68.1452 14.8132 68.2641 15.5577C68.3858 16.2744 69.0521 17.0342 69.6296 17.4327C70.2613 17.851 71.0036 17.8868 71.7518 18.1344C71.9021 18.4458 71.8157 18.9998 72.1199 19.1866ZM72.2892 15.1643C72.2021 15.5915 72.1224 16.4841 71.9509 16.7758C71.2805 16.8601 70.3123 16.2938 69.9642 15.7223C69.3895 14.761 70.2152 13.4682 71.2557 13.479C71.9021 13.4907 72.2538 13.3587 72.4348 13.6452C72.5016 13.9478 72.3778 14.7231 72.2892 15.1643ZM6.28467 18.644C5.83181 18.6668 5.59294 18.7965 5.23244 19.012C4.65945 19.3741 4.57373 19.52 4.20082 19.9875C3.49307 20.8282 3.17162 22.4132 3.80273 23.5072C4.1626 23.9673 4.92333 24.4978 5.6261 24.642C6.46518 24.8287 7.13053 24.6594 7.6962 24.3669C8.68538 23.7952 9.43853 22.7904 9.40098 21.6743C9.53261 19.8863 8.3416 18.4942 6.28467 18.644ZM4.97279 22.1521C4.92575 21.2603 5.73016 20.0357 6.49666 19.9754C7.49031 19.8969 8.21595 21.0289 7.84241 22.1722C7.65125 22.7855 6.99694 23.2517 6.55214 23.3316C5.60833 23.4717 5.01247 22.846 4.97279 22.1521ZM11.9945 22.0173C11.9086 21.0933 12.5789 19.4041 11.443 19.4959C10.7894 19.5539 10.7273 20.5468 10.616 21.3375C10.4703 22.3217 10.2418 23.1564 10.0419 24.1207C9.85227 24.9877 9.59007 25.8751 10.6145 25.7716C10.9977 25.7415 11.5845 24.5785 11.8651 24.1857C12.356 23.5334 12.2571 23.5371 13.0498 22.6913C13.3693 22.3307 13.7033 21.8309 14.1408 21.8206C14.1585 22.4559 14.0479 22.8385 13.8941 23.498C13.725 24.17 13.5778 24.9006 13.5478 25.5872C13.8154 26.1221 14.7856 25.9989 15.0164 25.5445C15.0881 25.3972 15.0676 25.0572 15.0939 24.8066C15.2147 23.7916 15.7296 22.241 15.747 21.2715C15.7521 20.8215 15.5834 20.283 15.4266 20.1679C14.9217 19.7489 14.3391 20.0677 13.9493 20.2942C13.4379 20.6065 13.0012 21.011 12.6466 21.4383C12.4686 21.6589 12.27 21.807 11.9945 22.0173ZM18.2704 24.5774C18.6163 24.5011 19.2047 24.394 19.6495 24.3141C20.309 24.2004 20.6497 24.0391 21.2997 23.8822C21.6888 23.7964 22.0031 23.3508 22.0147 22.9719C22.0411 22.7213 21.9047 22.1439 21.8248 21.9666C21.3739 20.4974 20.2746 19.9736 18.8604 20.3036C18.2859 20.4121 17.6023 20.8893 17.2022 21.4807C16.6923 22.0465 16.447 22.9076 16.5856 24.1328C16.8416 25.314 17.1611 25.7559 18.2406 26.3339C18.9112 26.7844 20.2947 26.7468 21.059 26.3063C21.3161 26.1363 21.4311 25.712 21.1585 25.3595C20.663 24.9837 20.1942 25.6946 19.2818 25.4016C18.6823 25.2119 18.3335 25.0485 18.2704 24.5774ZM18.547 21.9458C19.4988 21.328 20.3283 21.4714 20.5791 22.5677C20.4846 22.797 20.056 22.9913 19.7284 23.0273C19.2309 23.0735 18.3523 23.2627 18.106 23.1946C18.021 22.9323 18.1543 22.2002 18.547 21.9458ZM30.4445 21.3381C30.3909 20.3753 30.681 20.0257 30.8561 19.298C31.0326 18.8238 31.1542 18.4706 30.4536 18.4392C29.3478 18.3793 29.3626 19.3099 29.1524 20.1043C29.0631 20.4187 28.9057 21.2468 28.6514 21.389C28.4125 21.5187 27.4533 21.4038 27.1536 21.4427C26.8634 21.5248 26.5974 21.7784 26.5279 22.0386C26.4334 22.268 26.4855 22.7098 26.7618 22.8937C27.1451 23.1311 28.1651 22.8019 28.4333 23.1961C28.2927 23.9978 28.2115 24.6368 28.0724 25.1571C28.0321 25.4063 27.7538 26.4469 27.6857 26.6931C27.6344 26.913 27.2023 28.0782 27.2624 28.3097C27.3394 28.5149 27.7717 28.687 28.0824 28.6774C28.7888 28.6532 29.0348 27.1164 29.182 26.6533C29.2531 26.3792 29.505 25.3218 29.5621 25.0462C29.639 24.7165 29.9018 23.1534 30.1898 22.9584C30.4638 22.762 31.5953 22.9794 32.0503 22.802C32.3588 22.6796 32.5683 22.2934 32.5243 21.9087C32.4538 21.2396 30.745 21.6935 30.4445 21.3381ZM34.095 23.1999C34.6058 23.2958 35.2564 22.7308 36.3182 22.6734C36.6341 22.7489 37.0314 23.5226 36.6335 23.9594C36.3815 24.2145 35.1928 24.0051 34.4887 24.1422C34.0856 24.2266 33.5676 24.4677 33.3522 24.6422C33.0137 24.9163 32.6004 25.3656 32.676 26.1196C32.6841 26.4442 32.9319 26.7659 33.1591 27.015C33.7029 27.7338 34.3031 28.0503 35.091 28.4568C35.3174 28.5792 35.878 28.7366 36.1191 28.7197C36.4577 28.7131 36.8723 28.2499 36.9991 27.9817C37.3009 27.2532 37.5206 26.5021 37.7586 25.7106C37.9446 25.0123 38.2589 24.0317 38.1994 23.1245C38.1641 22.3888 37.7609 21.6707 37.2787 21.4371C36.422 21.1499 35.7091 21.3706 34.7851 21.724C34.319 21.8721 33.7621 22.081 33.7732 22.6453C33.7886 22.9003 33.8407 23.0747 34.095 23.1999ZM35.4063 25.3226C35.6723 25.3365 36.2087 25.3225 36.3736 25.4947C36.3224 25.982 36.1782 26.9522 35.7349 27.0183C35.0768 26.8505 34.0772 26.4499 34.1481 25.6409C34.3863 25.3843 34.8743 25.2949 35.4063 25.3226ZM41.0055 22.5608C40.9703 22.0925 41.0472 21.7628 41.1431 21.252C41.2668 20.7441 41.5188 19.9541 41.3539 19.5145C41.1478 18.9298 40.3227 19.012 40.0421 19.4048C39.796 19.8716 39.6694 20.9422 39.5566 21.4794C39.2857 22.7179 38.9444 24.0897 38.6933 25.5414C38.5813 26.2053 38.3052 27.0913 38.3104 27.7113C38.3119 28.2323 38.4579 28.8529 39.1189 28.9928C39.5446 29.0939 40.7192 28.7668 41.071 28.6349C41.685 28.4179 42.2368 28.1239 42.8017 27.7047C43.5373 27.1345 44.3718 26.2931 44.4442 25.2027C44.5085 24.0551 43.5858 23.3247 42.6163 23.0398C42.0696 22.8838 41.3463 22.9344 41.0055 22.5608ZM40.0666 25.8687C40.1676 25.1755 40.3485 24.3921 40.7178 24.0931C41.6807 24.0394 42.9543 24.5112 42.9281 25.2967C42.9018 25.8148 42.183 26.3587 41.7969 26.6841C41.3924 27.0498 40.179 27.612 39.7613 27.5681L40.0666 25.8687ZM50.6643 26.0817C50.5784 25.1576 51.2487 23.4684 50.1128 23.5602C49.4592 23.6182 49.3971 24.6112 49.2858 25.4019C49.1401 26.386 48.9116 27.2207 48.7117 28.1851C48.5221 29.052 48.2599 29.9395 49.2843 29.836C49.6676 29.8059 50.2543 28.6429 50.5349 28.25C51.0258 27.5978 50.9269 27.6014 51.7196 26.7557C52.0391 26.3951 52.3732 25.8953 52.8106 25.8849C52.8283 26.5203 52.7177 26.9028 52.5639 27.5624C52.3948 28.2344 52.2476 28.965 52.2177 29.6516C52.4852 30.1865 53.4554 30.0632 53.6862 29.6089C53.758 29.4616 53.7374 29.1216 53.7637 28.8709C53.8845 27.856 54.3994 26.3053 54.4168 25.3358C54.4219 24.8859 54.2533 24.3473 54.0964 24.2323C53.5915 23.8132 53.0089 24.1321 52.6191 24.3586C52.1077 24.6708 51.671 25.0754 51.3164 25.5027C51.1384 25.7233 50.9398 25.8713 50.6643 26.0817ZM57.8716 24.066C57.4187 24.0888 57.1799 24.2185 56.8194 24.434C56.2464 24.7961 56.1607 24.942 55.7878 25.4095C55.08 26.2502 54.7586 27.8352 55.3897 28.9292C55.7495 29.3893 56.5103 29.9198 57.213 30.064C58.0521 30.2508 58.7175 30.0814 59.2831 29.7889C60.2723 29.2172 61.0255 28.2124 60.9879 27.0963C61.1195 25.3083 59.9285 23.9162 57.8716 24.066ZM56.5597 27.5741C56.5127 26.6823 57.3171 25.4577 58.0836 25.3975C59.0773 25.3189 59.8029 26.4509 59.4293 27.5942C59.2382 28.2075 58.5839 28.6737 58.1391 28.7536C57.1953 28.8938 56.5994 28.268 56.5597 27.5741ZM63.3861 29.6993C63.1816 29.3681 63.2232 28.3026 63.2422 27.5867C63.267 27.0825 63.5848 25.666 63.4345 25.3545C63.2608 24.9984 62.5287 24.8652 62.2137 25.184C61.7895 25.604 61.7906 27.8705 61.8075 28.379C61.8538 29.1441 61.8657 30.1026 62.1347 30.6235C62.4931 31.3651 63.5381 31.3341 64.1375 30.9889C64.4533 30.7968 65.1588 29.8434 65.2379 29.8939C65.3449 29.9474 65.6749 31.0942 65.8911 31.314C66.347 31.7983 67.1142 31.5974 67.7245 31.2814C69.113 30.5264 70.4903 28.1373 70.6248 25.7865C70.3587 25.2377 69.5754 25.3243 69.3021 25.6475C69.0449 26.085 68.8436 27.3308 68.5484 28.1303C68.232 28.998 67.2312 30.216 66.9153 30.1406C66.5592 30.0469 66.5164 28.0434 66.1543 27.4704C65.9359 27.1378 65.5636 27.1972 65.2705 27.3072C64.7898 27.5945 64.1739 29.5709 63.3861 29.6993Z" fill="black"/>
</svg>
